# 3ds Max Wavefront OBJ Exporter v0.97b - (c)2007 guruware
# File Created: 27.12.2013 12:07:50

mtllib ground.mtl

#
# object Box_Low
#

v  -33.1649 -40.3743 -4.0099
v  33.1649 -40.3743 -4.0099
v  -33.1649 40.3743 -4.0099
v  33.1649 40.3743 -4.0099
v  -33.1649 -40.3743 4.0099
v  33.1649 -40.3743 4.0099
v  -33.1649 40.3743 4.0099
v  33.1649 40.3743 4.0099
# 8 vertices

vn 0.0000 0.0000 -1.0000
vn 0.0000 0.0000 -1.0000
vn 0.0000 0.0000 -1.0000
vn 0.0000 0.0000 -1.0000
vn 0.0000 0.0000 -1.0000
vn 0.0000 0.0000 -1.0000
vn 0.0000 0.0000 1.0000
vn 0.0000 0.0000 1.0000
vn 0.0000 0.0000 1.0000
vn 0.0000 0.0000 1.0000
vn 0.0000 0.0000 1.0000
vn 0.0000 0.0000 1.0000
vn 0.0000 -1.0000 0.0000
vn 0.0000 -1.0000 0.0000
vn 0.0000 -1.0000 0.0000
vn 0.0000 -1.0000 0.0000
vn 0.0000 -1.0000 0.0000
vn 0.0000 -1.0000 0.0000
vn 1.0000 0.0000 0.0000
vn 1.0000 0.0000 0.0000
vn 1.0000 0.0000 0.0000
vn 1.0000 0.0000 0.0000
vn 1.0000 0.0000 0.0000
vn 1.0000 0.0000 0.0000
vn 0.0000 1.0000 0.0000
vn 0.0000 1.0000 0.0000
vn 0.0000 1.0000 0.0000
vn 0.0000 1.0000 0.0000
vn 0.0000 1.0000 0.0000
vn 0.0000 1.0000 0.0000
vn -1.0000 0.0000 0.0000
vn -1.0000 0.0000 0.0000
vn -1.0000 0.0000 0.0000
vn -1.0000 0.0000 0.0000
vn -1.0000 0.0000 0.0000
vn -1.0000 0.0000 0.0000
# 36 vertex normals

vt 0.4980 0.0434 0.0000
vt 0.9526 0.5694 0.0000
vt 0.4980 0.5694 0.0000
vt 0.9526 0.0434 0.0000
vt 0.4546 0.5694 0.0000
vt 0.4546 0.0434 0.0000
vt 0.0000 0.5694 0.0000
vt 0.0000 0.0434 0.0000
vt 0.9526 0.6128 0.0000
vt 0.4980 0.6128 0.0000
vt 0.9960 0.0434 0.0000
vt 0.9960 0.5694 0.0000
vt 0.4980 0.0000 0.0000
vt 0.9526 0.0000 0.0000
# 14 texture coords

g Box_Low
usemtl wire_006135113
f 1/3/1 3/1/2 4/4/3 
f 4/4/4 2/2/5 1/3/6 
f 5/5/7 6/7/8 8/8/9 
f 8/8/10 7/6/11 5/5/12 
f 1/3/13 2/2/14 6/9/15 
f 6/9/16 5/10/17 1/3/18 
f 2/2/19 4/4/20 8/11/21 
f 8/11/22 6/12/23 2/2/24 
f 4/4/25 3/1/26 7/13/27 
f 7/13/28 8/14/29 4/4/30 
f 3/1/31 1/3/32 5/5/33 
f 5/5/34 7/6/35 3/1/36 
# 12 faces

