# 3ds Max Wavefront OBJ Exporter v0.97b - (c)2007 guruware
# File Created: 14.12.2013 18:43:17

#
# object Sphere001
#

v  1.0186 1.6745 2.3314
v  1.0186 2.6860 2.1006
v  0.5797 2.5859 2.1006
v  0.2277 2.3052 2.1006
v  0.0324 1.8996 2.1006
v  0.0324 1.4494 2.1006
v  0.2277 1.0437 2.1006
v  0.5797 0.7631 2.1006
v  1.0186 0.6629 2.1006
v  1.4575 0.7631 2.1006
v  1.8095 1.0437 2.1006
v  2.0048 1.4494 2.1006
v  2.0048 1.8996 2.1006
v  1.8095 2.3052 2.1006
v  1.4575 2.5859 2.1006
v  1.0186 3.4973 1.4536
v  0.2277 3.3167 1.4536
v  -0.4065 2.8110 1.4536
v  -0.7585 2.0801 1.4536
v  -0.7585 1.2688 1.4536
v  -0.4065 0.5380 1.4536
v  0.2277 0.0322 1.4536
v  1.0186 -0.1483 1.4536
v  1.8095 0.0322 1.4536
v  2.4437 0.5380 1.4536
v  2.7957 1.2688 1.4536
v  2.7957 2.0801 1.4536
v  2.4437 2.8110 1.4536
v  1.8095 3.3167 1.4536
v  1.0186 3.9474 0.5188
v  0.0324 3.7223 0.5188
v  -0.7585 3.0916 0.5188
v  -1.1974 2.1802 0.5188
v  -1.1974 1.1687 0.5188
v  -0.7585 0.2573 0.5188
v  0.0324 -0.3734 0.5188
v  1.0186 -0.5985 0.5188
v  2.0048 -0.3734 0.5188
v  2.7957 0.2573 0.5188
v  3.2346 1.1687 0.5188
v  3.2346 2.1802 0.5188
v  2.7957 3.0916 0.5188
v  2.0048 3.7224 0.5188
v  1.0186 3.9474 -0.5188
v  0.0324 3.7223 -0.5188
v  -0.7585 3.0916 -0.5188
v  -1.1974 2.1802 -0.5188
v  -1.1974 1.1687 -0.5188
v  -0.7585 0.2573 -0.5188
v  0.0324 -0.3734 -0.5188
v  1.0186 -0.5985 -0.5188
v  2.0048 -0.3734 -0.5188
v  2.7957 0.2573 -0.5188
v  3.2346 1.1687 -0.5188
v  3.2346 2.1802 -0.5188
v  2.7957 3.0916 -0.5188
v  2.0048 3.7224 -0.5188
v  1.0186 3.4973 -1.4536
v  0.2277 3.3167 -1.4536
v  -0.4065 2.8109 -1.4536
v  -0.7585 2.0801 -1.4536
v  -0.7585 1.2688 -1.4536
v  -0.4065 0.5380 -1.4536
v  0.2277 0.0322 -1.4536
v  1.0186 -0.1483 -1.4536
v  1.8095 0.0322 -1.4536
v  2.4437 0.5380 -1.4536
v  2.7957 1.2688 -1.4536
v  2.7957 2.0801 -1.4536
v  2.4437 2.8110 -1.4536
v  1.8095 3.3167 -1.4536
v  1.0186 2.6860 -2.1006
v  0.5797 2.5859 -2.1006
v  0.2277 2.3052 -2.1006
v  0.0324 1.8996 -2.1006
v  0.0324 1.4494 -2.1006
v  0.2277 1.0437 -2.1006
v  0.5797 0.7631 -2.1006
v  1.0186 0.6629 -2.1006
v  1.4575 0.7631 -2.1006
v  1.8095 1.0437 -2.1006
v  2.0048 1.4494 -2.1006
v  2.0048 1.8996 -2.1006
v  1.8095 2.3052 -2.1006
v  1.4575 2.5859 -2.1006
v  1.0186 1.6745 -2.3314
# 86 vertices

vn -0.0000 0.0000 1.0000
vn -0.0000 0.4589 0.8885
vn -0.1991 0.4135 0.8885
vn -0.0000 0.0000 1.0000
vn -0.1991 0.4135 0.8885
vn -0.3588 0.2861 0.8885
vn -0.0000 0.0000 1.0000
vn -0.3588 0.2861 0.8885
vn -0.4474 0.1021 0.8885
vn -0.0000 0.0000 1.0000
vn -0.4474 0.1021 0.8885
vn -0.4474 -0.1021 0.8885
vn -0.0000 0.0000 1.0000
vn -0.4474 -0.1021 0.8885
vn -0.3588 -0.2861 0.8885
vn -0.0000 0.0000 1.0000
vn -0.3588 -0.2861 0.8885
vn -0.1991 -0.4135 0.8885
vn -0.0000 0.0000 1.0000
vn -0.1991 -0.4135 0.8885
vn -0.0000 -0.4589 0.8885
vn -0.0000 0.0000 1.0000
vn -0.0000 -0.4589 0.8885
vn 0.1991 -0.4135 0.8885
vn -0.0000 0.0000 1.0000
vn 0.1991 -0.4135 0.8885
vn 0.3588 -0.2861 0.8885
vn -0.0000 0.0000 1.0000
vn 0.3588 -0.2861 0.8885
vn 0.4474 -0.1021 0.8885
vn -0.0000 0.0000 1.0000
vn 0.4474 -0.1021 0.8885
vn 0.4474 0.1021 0.8885
vn -0.0000 0.0000 1.0000
vn 0.4474 0.1021 0.8885
vn 0.3588 0.2861 0.8885
vn -0.0000 0.0000 1.0000
vn 0.3588 0.2861 0.8885
vn 0.1991 0.4135 0.8885
vn -0.0000 0.0000 1.0000
vn 0.1991 0.4135 0.8885
vn -0.0000 0.4589 0.8885
vn -0.0000 0.4589 0.8885
vn -0.0000 0.7935 0.6085
vn -0.3443 0.7150 0.6085
vn -0.0000 0.4589 0.8885
vn -0.3443 0.7150 0.6085
vn -0.1991 0.4135 0.8885
vn -0.1991 0.4135 0.8885
vn -0.3443 0.7150 0.6085
vn -0.6204 0.4948 0.6085
vn -0.1991 0.4135 0.8885
vn -0.6204 0.4948 0.6085
vn -0.3588 0.2861 0.8885
vn -0.3588 0.2861 0.8885
vn -0.6204 0.4948 0.6085
vn -0.7737 0.1766 0.6085
vn -0.3588 0.2861 0.8885
vn -0.7737 0.1766 0.6085
vn -0.4474 0.1021 0.8885
vn -0.4474 0.1021 0.8885
vn -0.7737 0.1766 0.6085
vn -0.7737 -0.1766 0.6085
vn -0.4474 0.1021 0.8885
vn -0.7737 -0.1766 0.6085
vn -0.4474 -0.1021 0.8885
vn -0.4474 -0.1021 0.8885
vn -0.7737 -0.1766 0.6085
vn -0.6204 -0.4948 0.6085
vn -0.4474 -0.1021 0.8885
vn -0.6204 -0.4948 0.6085
vn -0.3588 -0.2861 0.8885
vn -0.3588 -0.2861 0.8885
vn -0.6204 -0.4948 0.6085
vn -0.3443 -0.7150 0.6085
vn -0.3588 -0.2861 0.8885
vn -0.3443 -0.7150 0.6085
vn -0.1991 -0.4135 0.8885
vn -0.1991 -0.4135 0.8885
vn -0.3443 -0.7150 0.6085
vn -0.0000 -0.7935 0.6085
vn -0.1991 -0.4135 0.8885
vn -0.0000 -0.7935 0.6085
vn -0.0000 -0.4589 0.8885
vn -0.0000 -0.4589 0.8885
vn -0.0000 -0.7935 0.6085
vn 0.3443 -0.7150 0.6085
vn -0.0000 -0.4589 0.8885
vn 0.3443 -0.7150 0.6085
vn 0.1991 -0.4135 0.8885
vn 0.1991 -0.4135 0.8885
vn 0.3443 -0.7150 0.6085
vn 0.6204 -0.4948 0.6085
vn 0.1991 -0.4135 0.8885
vn 0.6204 -0.4948 0.6085
vn 0.3588 -0.2861 0.8885
vn 0.3588 -0.2861 0.8885
vn 0.6204 -0.4948 0.6085
vn 0.7737 -0.1766 0.6085
vn 0.3588 -0.2861 0.8885
vn 0.7737 -0.1766 0.6085
vn 0.4474 -0.1021 0.8885
vn 0.4474 -0.1021 0.8885
vn 0.7737 -0.1766 0.6085
vn 0.7737 0.1766 0.6085
vn 0.4474 -0.1021 0.8885
vn 0.7737 0.1766 0.6085
vn 0.4474 0.1021 0.8885
vn 0.4474 0.1021 0.8885
vn 0.7737 0.1766 0.6085
vn 0.6204 0.4948 0.6085
vn 0.4474 0.1021 0.8885
vn 0.6204 0.4948 0.6085
vn 0.3588 0.2861 0.8885
vn 0.3588 0.2861 0.8885
vn 0.6204 0.4948 0.6085
vn 0.3443 0.7150 0.6085
vn 0.3588 0.2861 0.8885
vn 0.3443 0.7150 0.6085
vn 0.1991 0.4135 0.8885
vn 0.1991 0.4135 0.8885
vn 0.3443 0.7150 0.6085
vn -0.0000 0.7935 0.6085
vn 0.1991 0.4135 0.8885
vn -0.0000 0.7935 0.6085
vn -0.0000 0.4589 0.8885
vn -0.0000 0.7935 0.6085
vn -0.0000 0.9764 0.2160
vn -0.4236 0.8797 0.2160
vn -0.0000 0.7935 0.6085
vn -0.4236 0.8797 0.2160
vn -0.3443 0.7150 0.6085
vn -0.3443 0.7150 0.6085
vn -0.4236 0.8797 0.2160
vn -0.7634 0.6088 0.2160
vn -0.3443 0.7150 0.6085
vn -0.7634 0.6088 0.2160
vn -0.6204 0.4948 0.6085
vn -0.6204 0.4948 0.6085
vn -0.7634 0.6088 0.2160
vn -0.9519 0.2173 0.2160
vn -0.6204 0.4948 0.6085
vn -0.9519 0.2173 0.2160
vn -0.7737 0.1766 0.6085
vn -0.7737 0.1766 0.6085
vn -0.9519 0.2173 0.2160
vn -0.9519 -0.2173 0.2160
vn -0.7737 0.1766 0.6085
vn -0.9519 -0.2173 0.2160
vn -0.7737 -0.1766 0.6085
vn -0.7737 -0.1766 0.6085
vn -0.9519 -0.2173 0.2160
vn -0.7634 -0.6088 0.2160
vn -0.7737 -0.1766 0.6085
vn -0.7634 -0.6088 0.2160
vn -0.6204 -0.4948 0.6085
vn -0.6204 -0.4948 0.6085
vn -0.7634 -0.6088 0.2160
vn -0.4236 -0.8797 0.2160
vn -0.6204 -0.4948 0.6085
vn -0.4236 -0.8797 0.2160
vn -0.3443 -0.7150 0.6085
vn -0.3443 -0.7150 0.6085
vn -0.4236 -0.8797 0.2160
vn 0.0000 -0.9764 0.2160
vn -0.3443 -0.7150 0.6085
vn 0.0000 -0.9764 0.2160
vn -0.0000 -0.7935 0.6085
vn -0.0000 -0.7935 0.6085
vn 0.0000 -0.9764 0.2160
vn 0.4236 -0.8797 0.2160
vn -0.0000 -0.7935 0.6085
vn 0.4236 -0.8797 0.2160
vn 0.3443 -0.7150 0.6085
vn 0.3443 -0.7150 0.6085
vn 0.4236 -0.8797 0.2160
vn 0.7634 -0.6088 0.2160
vn 0.3443 -0.7150 0.6085
vn 0.7634 -0.6088 0.2160
vn 0.6204 -0.4948 0.6085
vn 0.6204 -0.4948 0.6085
vn 0.7634 -0.6088 0.2160
vn 0.9519 -0.2173 0.2160
vn 0.6204 -0.4948 0.6085
vn 0.9519 -0.2173 0.2160
vn 0.7737 -0.1766 0.6085
vn 0.7737 -0.1766 0.6085
vn 0.9519 -0.2173 0.2160
vn 0.9519 0.2173 0.2160
vn 0.7737 -0.1766 0.6085
vn 0.9519 0.2173 0.2160
vn 0.7737 0.1766 0.6085
vn 0.7737 0.1766 0.6085
vn 0.9519 0.2173 0.2160
vn 0.7634 0.6088 0.2160
vn 0.7737 0.1766 0.6085
vn 0.7634 0.6088 0.2160
vn 0.6204 0.4948 0.6085
vn 0.6204 0.4948 0.6085
vn 0.7634 0.6088 0.2160
vn 0.4236 0.8797 0.2160
vn 0.6204 0.4948 0.6085
vn 0.4236 0.8797 0.2160
vn 0.3443 0.7150 0.6085
vn 0.3443 0.7150 0.6085
vn 0.4236 0.8797 0.2160
vn -0.0000 0.9764 0.2160
vn 0.3443 0.7150 0.6085
vn -0.0000 0.9764 0.2160
vn -0.0000 0.7935 0.6085
vn -0.0000 0.9764 0.2160
vn -0.0000 0.9764 -0.2160
vn -0.4236 0.8797 -0.2160
vn -0.0000 0.9764 0.2160
vn -0.4236 0.8797 -0.2160
vn -0.4236 0.8797 0.2160
vn -0.4236 0.8797 0.2160
vn -0.4236 0.8797 -0.2160
vn -0.7634 0.6088 -0.2160
vn -0.4236 0.8797 0.2160
vn -0.7634 0.6088 -0.2160
vn -0.7634 0.6088 0.2160
vn -0.7634 0.6088 0.2160
vn -0.7634 0.6088 -0.2160
vn -0.9519 0.2173 -0.2160
vn -0.7634 0.6088 0.2160
vn -0.9519 0.2173 -0.2160
vn -0.9519 0.2173 0.2160
vn -0.9519 0.2173 0.2160
vn -0.9519 0.2173 -0.2160
vn -0.9519 -0.2173 -0.2160
vn -0.9519 0.2173 0.2160
vn -0.9519 -0.2173 -0.2160
vn -0.9519 -0.2173 0.2160
vn -0.9519 -0.2173 0.2160
vn -0.9519 -0.2173 -0.2160
vn -0.7634 -0.6088 -0.2160
vn -0.9519 -0.2173 0.2160
vn -0.7634 -0.6088 -0.2160
vn -0.7634 -0.6088 0.2160
vn -0.7634 -0.6088 0.2160
vn -0.7634 -0.6088 -0.2160
vn -0.4236 -0.8797 -0.2160
vn -0.7634 -0.6088 0.2160
vn -0.4236 -0.8797 -0.2160
vn -0.4236 -0.8797 0.2160
vn -0.4236 -0.8797 0.2160
vn -0.4236 -0.8797 -0.2160
vn 0.0000 -0.9764 -0.2160
vn -0.4236 -0.8797 0.2160
vn 0.0000 -0.9764 -0.2160
vn 0.0000 -0.9764 0.2160
vn 0.0000 -0.9764 0.2160
vn 0.0000 -0.9764 -0.2160
vn 0.4236 -0.8797 -0.2160
vn 0.0000 -0.9764 0.2160
vn 0.4236 -0.8797 -0.2160
vn 0.4236 -0.8797 0.2160
vn 0.4236 -0.8797 0.2160
vn 0.4236 -0.8797 -0.2160
vn 0.7634 -0.6088 -0.2160
vn 0.4236 -0.8797 0.2160
vn 0.7634 -0.6088 -0.2160
vn 0.7634 -0.6088 0.2160
vn 0.7634 -0.6088 0.2160
vn 0.7634 -0.6088 -0.2160
vn 0.9519 -0.2173 -0.2160
vn 0.7634 -0.6088 0.2160
vn 0.9519 -0.2173 -0.2160
vn 0.9519 -0.2173 0.2160
vn 0.9519 -0.2173 0.2160
vn 0.9519 -0.2173 -0.2160
vn 0.9519 0.2173 -0.2160
vn 0.9519 -0.2173 0.2160
vn 0.9519 0.2173 -0.2160
vn 0.9519 0.2173 0.2160
vn 0.9519 0.2173 0.2160
vn 0.9519 0.2173 -0.2160
vn 0.7634 0.6088 -0.2160
vn 0.9519 0.2173 0.2160
vn 0.7634 0.6088 -0.2160
vn 0.7634 0.6088 0.2160
vn 0.7634 0.6088 0.2160
vn 0.7634 0.6088 -0.2160
vn 0.4236 0.8797 -0.2160
vn 0.7634 0.6088 0.2160
vn 0.4236 0.8797 -0.2160
vn 0.4236 0.8797 0.2160
vn 0.4236 0.8797 0.2160
vn 0.4236 0.8797 -0.2160
vn -0.0000 0.9764 -0.2160
vn 0.4236 0.8797 0.2160
vn -0.0000 0.9764 -0.2160
vn -0.0000 0.9764 0.2160
vn -0.0000 0.9764 -0.2160
vn -0.0000 0.7935 -0.6085
vn -0.3443 0.7150 -0.6085
vn -0.0000 0.9764 -0.2160
vn -0.3443 0.7150 -0.6085
vn -0.4236 0.8797 -0.2160
vn -0.4236 0.8797 -0.2160
vn -0.3443 0.7150 -0.6085
vn -0.6204 0.4948 -0.6085
vn -0.4236 0.8797 -0.2160
vn -0.6204 0.4948 -0.6085
vn -0.7634 0.6088 -0.2160
vn -0.7634 0.6088 -0.2160
vn -0.6204 0.4948 -0.6085
vn -0.7737 0.1766 -0.6085
vn -0.7634 0.6088 -0.2160
vn -0.7737 0.1766 -0.6085
vn -0.9519 0.2173 -0.2160
vn -0.9519 0.2173 -0.2160
vn -0.7737 0.1766 -0.6085
vn -0.7737 -0.1766 -0.6085
vn -0.9519 0.2173 -0.2160
vn -0.7737 -0.1766 -0.6085
vn -0.9519 -0.2173 -0.2160
vn -0.9519 -0.2173 -0.2160
vn -0.7737 -0.1766 -0.6085
vn -0.6204 -0.4948 -0.6085
vn -0.9519 -0.2173 -0.2160
vn -0.6204 -0.4948 -0.6085
vn -0.7634 -0.6088 -0.2160
vn -0.7634 -0.6088 -0.2160
vn -0.6204 -0.4948 -0.6085
vn -0.3443 -0.7150 -0.6085
vn -0.7634 -0.6088 -0.2160
vn -0.3443 -0.7150 -0.6085
vn -0.4236 -0.8797 -0.2160
vn -0.4236 -0.8797 -0.2160
vn -0.3443 -0.7150 -0.6085
vn 0.0000 -0.7935 -0.6085
vn -0.4236 -0.8797 -0.2160
vn 0.0000 -0.7935 -0.6085
vn 0.0000 -0.9764 -0.2160
vn 0.0000 -0.9764 -0.2160
vn 0.0000 -0.7935 -0.6085
vn 0.3443 -0.7150 -0.6085
vn 0.0000 -0.9764 -0.2160
vn 0.3443 -0.7150 -0.6085
vn 0.4236 -0.8797 -0.2160
vn 0.4236 -0.8797 -0.2160
vn 0.3443 -0.7150 -0.6085
vn 0.6204 -0.4948 -0.6085
vn 0.4236 -0.8797 -0.2160
vn 0.6204 -0.4948 -0.6085
vn 0.7634 -0.6088 -0.2160
vn 0.7634 -0.6088 -0.2160
vn 0.6204 -0.4948 -0.6085
vn 0.7737 -0.1766 -0.6085
vn 0.7634 -0.6088 -0.2160
vn 0.7737 -0.1766 -0.6085
vn 0.9519 -0.2173 -0.2160
vn 0.9519 -0.2173 -0.2160
vn 0.7737 -0.1766 -0.6085
vn 0.7737 0.1766 -0.6085
vn 0.9519 -0.2173 -0.2160
vn 0.7737 0.1766 -0.6085
vn 0.9519 0.2173 -0.2160
vn 0.9519 0.2173 -0.2160
vn 0.7737 0.1766 -0.6085
vn 0.6204 0.4948 -0.6085
vn 0.9519 0.2173 -0.2160
vn 0.6204 0.4948 -0.6085
vn 0.7634 0.6088 -0.2160
vn 0.7634 0.6088 -0.2160
vn 0.6204 0.4948 -0.6085
vn 0.3443 0.7150 -0.6085
vn 0.7634 0.6088 -0.2160
vn 0.3443 0.7150 -0.6085
vn 0.4236 0.8797 -0.2160
vn 0.4236 0.8797 -0.2160
vn 0.3443 0.7150 -0.6085
vn -0.0000 0.7935 -0.6085
vn 0.4236 0.8797 -0.2160
vn -0.0000 0.7935 -0.6085
vn -0.0000 0.9764 -0.2160
vn -0.0000 0.7935 -0.6085
vn -0.0000 0.4589 -0.8885
vn -0.1991 0.4135 -0.8885
vn -0.0000 0.7935 -0.6085
vn -0.1991 0.4135 -0.8885
vn -0.3443 0.7150 -0.6085
vn -0.3443 0.7150 -0.6085
vn -0.1991 0.4135 -0.8885
vn -0.3588 0.2861 -0.8885
vn -0.3443 0.7150 -0.6085
vn -0.3588 0.2861 -0.8885
vn -0.6204 0.4948 -0.6085
vn -0.6204 0.4948 -0.6085
vn -0.3588 0.2861 -0.8885
vn -0.4474 0.1021 -0.8885
vn -0.6204 0.4948 -0.6085
vn -0.4474 0.1021 -0.8885
vn -0.7737 0.1766 -0.6085
vn -0.7737 0.1766 -0.6085
vn -0.4474 0.1021 -0.8885
vn -0.4474 -0.1021 -0.8885
vn -0.7737 0.1766 -0.6085
vn -0.4474 -0.1021 -0.8885
vn -0.7737 -0.1766 -0.6085
vn -0.7737 -0.1766 -0.6085
vn -0.4474 -0.1021 -0.8885
vn -0.3588 -0.2861 -0.8885
vn -0.7737 -0.1766 -0.6085
vn -0.3588 -0.2861 -0.8885
vn -0.6204 -0.4948 -0.6085
vn -0.6204 -0.4948 -0.6085
vn -0.3588 -0.2861 -0.8885
vn -0.1991 -0.4135 -0.8885
vn -0.6204 -0.4948 -0.6085
vn -0.1991 -0.4135 -0.8885
vn -0.3443 -0.7150 -0.6085
vn -0.3443 -0.7150 -0.6085
vn -0.1991 -0.4135 -0.8885
vn 0.0000 -0.4589 -0.8885
vn -0.3443 -0.7150 -0.6085
vn 0.0000 -0.4589 -0.8885
vn 0.0000 -0.7935 -0.6085
vn 0.0000 -0.7935 -0.6085
vn 0.0000 -0.4589 -0.8885
vn 0.1991 -0.4135 -0.8885
vn 0.0000 -0.7935 -0.6085
vn 0.1991 -0.4135 -0.8885
vn 0.3443 -0.7150 -0.6085
vn 0.3443 -0.7150 -0.6085
vn 0.1991 -0.4135 -0.8885
vn 0.3588 -0.2861 -0.8885
vn 0.3443 -0.7150 -0.6085
vn 0.3588 -0.2861 -0.8885
vn 0.6204 -0.4948 -0.6085
vn 0.6204 -0.4948 -0.6085
vn 0.3588 -0.2861 -0.8885
vn 0.4474 -0.1021 -0.8885
vn 0.6204 -0.4948 -0.6085
vn 0.4474 -0.1021 -0.8885
vn 0.7737 -0.1766 -0.6085
vn 0.7737 -0.1766 -0.6085
vn 0.4474 -0.1021 -0.8885
vn 0.4474 0.1021 -0.8885
vn 0.7737 -0.1766 -0.6085
vn 0.4474 0.1021 -0.8885
vn 0.7737 0.1766 -0.6085
vn 0.7737 0.1766 -0.6085
vn 0.4474 0.1021 -0.8885
vn 0.3588 0.2861 -0.8885
vn 0.7737 0.1766 -0.6085
vn 0.3588 0.2861 -0.8885
vn 0.6204 0.4948 -0.6085
vn 0.6204 0.4948 -0.6085
vn 0.3588 0.2861 -0.8885
vn 0.1991 0.4135 -0.8885
vn 0.6204 0.4948 -0.6085
vn 0.1991 0.4135 -0.8885
vn 0.3443 0.7150 -0.6085
vn 0.3443 0.7150 -0.6085
vn 0.1991 0.4135 -0.8885
vn -0.0000 0.4589 -0.8885
vn 0.3443 0.7150 -0.6085
vn -0.0000 0.4589 -0.8885
vn -0.0000 0.7935 -0.6085
vn -0.0000 0.0000 -1.0000
vn -0.1991 0.4135 -0.8885
vn -0.0000 0.4589 -0.8885
vn -0.0000 0.0000 -1.0000
vn -0.3588 0.2861 -0.8885
vn -0.1991 0.4135 -0.8885
vn -0.0000 0.0000 -1.0000
vn -0.4474 0.1021 -0.8885
vn -0.3588 0.2861 -0.8885
vn -0.0000 0.0000 -1.0000
vn -0.4474 -0.1021 -0.8885
vn -0.4474 0.1021 -0.8885
vn -0.0000 0.0000 -1.0000
vn -0.3588 -0.2861 -0.8885
vn -0.4474 -0.1021 -0.8885
vn -0.0000 0.0000 -1.0000
vn -0.1991 -0.4135 -0.8885
vn -0.3588 -0.2861 -0.8885
vn -0.0000 0.0000 -1.0000
vn 0.0000 -0.4589 -0.8885
vn -0.1991 -0.4135 -0.8885
vn -0.0000 0.0000 -1.0000
vn 0.1991 -0.4135 -0.8885
vn 0.0000 -0.4589 -0.8885
vn -0.0000 0.0000 -1.0000
vn 0.3588 -0.2861 -0.8885
vn 0.1991 -0.4135 -0.8885
vn -0.0000 0.0000 -1.0000
vn 0.4474 -0.1021 -0.8885
vn 0.3588 -0.2861 -0.8885
vn -0.0000 0.0000 -1.0000
vn 0.4474 0.1021 -0.8885
vn 0.4474 -0.1021 -0.8885
vn -0.0000 0.0000 -1.0000
vn 0.3588 0.2861 -0.8885
vn 0.4474 0.1021 -0.8885
vn -0.0000 0.0000 -1.0000
vn 0.1991 0.4135 -0.8885
vn 0.3588 0.2861 -0.8885
vn -0.0000 0.0000 -1.0000
vn -0.0000 0.4589 -0.8885
vn 0.1991 0.4135 -0.8885
# 504 vertex normals

vt 0.0000 1.0000 0.0000
vt 0.0714 1.0000 0.0000
vt 0.1429 1.0000 0.0000
vt 0.2143 1.0000 0.0000
vt 0.2857 1.0000 0.0000
vt 0.3571 1.0000 0.0000
vt 0.4286 1.0000 0.0000
vt 0.5000 1.0000 0.0000
vt 0.5714 1.0000 0.0000
vt 0.6429 1.0000 0.0000
vt 0.7143 1.0000 0.0000
vt 0.7857 1.0000 0.0000
vt 0.8571 1.0000 0.0000
vt 0.9286 1.0000 0.0000
vt 1.0000 1.0000 0.0000
vt 0.0000 0.8571 0.0000
vt 0.0714 0.8571 0.0000
vt 0.1429 0.8571 0.0000
vt 0.2143 0.8571 0.0000
vt 0.2857 0.8571 0.0000
vt 0.3571 0.8571 0.0000
vt 0.4286 0.8571 0.0000
vt 0.5000 0.8571 0.0000
vt 0.5714 0.8571 0.0000
vt 0.6429 0.8571 0.0000
vt 0.7143 0.8571 0.0000
vt 0.7857 0.8571 0.0000
vt 0.8571 0.8571 0.0000
vt 0.9286 0.8571 0.0000
vt 1.0000 0.8571 0.0000
vt 0.0000 0.7143 0.0000
vt 0.0714 0.7143 0.0000
vt 0.1429 0.7143 0.0000
vt 0.2143 0.7143 0.0000
vt 0.2857 0.7143 0.0000
vt 0.3571 0.7143 0.0000
vt 0.4286 0.7143 0.0000
vt 0.5000 0.7143 0.0000
vt 0.5714 0.7143 0.0000
vt 0.6429 0.7143 0.0000
vt 0.7143 0.7143 0.0000
vt 0.7857 0.7143 0.0000
vt 0.8571 0.7143 0.0000
vt 0.9286 0.7143 0.0000
vt 1.0000 0.7143 0.0000
vt 0.0000 0.5714 0.0000
vt 0.0714 0.5714 0.0000
vt 0.1429 0.5714 0.0000
vt 0.2143 0.5714 0.0000
vt 0.2857 0.5714 0.0000
vt 0.3571 0.5714 0.0000
vt 0.4286 0.5714 0.0000
vt 0.5000 0.5714 0.0000
vt 0.5714 0.5714 0.0000
vt 0.6429 0.5714 0.0000
vt 0.7143 0.5714 0.0000
vt 0.7857 0.5714 0.0000
vt 0.8571 0.5714 0.0000
vt 0.9286 0.5714 0.0000
vt 1.0000 0.5714 0.0000
vt 0.0000 0.4286 0.0000
vt 0.0714 0.4286 0.0000
vt 0.1429 0.4286 0.0000
vt 0.2143 0.4286 0.0000
vt 0.2857 0.4286 0.0000
vt 0.3571 0.4286 0.0000
vt 0.4286 0.4286 0.0000
vt 0.5000 0.4286 0.0000
vt 0.5714 0.4286 0.0000
vt 0.6429 0.4286 0.0000
vt 0.7143 0.4286 0.0000
vt 0.7857 0.4286 0.0000
vt 0.8571 0.4286 0.0000
vt 0.9286 0.4286 0.0000
vt 1.0000 0.4286 0.0000
vt 0.0000 0.2857 0.0000
vt 0.0714 0.2857 0.0000
vt 0.1429 0.2857 0.0000
vt 0.2143 0.2857 0.0000
vt 0.2857 0.2857 0.0000
vt 0.3571 0.2857 0.0000
vt 0.4286 0.2857 0.0000
vt 0.5000 0.2857 0.0000
vt 0.5714 0.2857 0.0000
vt 0.6429 0.2857 0.0000
vt 0.7143 0.2857 0.0000
vt 0.7857 0.2857 0.0000
vt 0.8571 0.2857 0.0000
vt 0.9286 0.2857 0.0000
vt 1.0000 0.2857 0.0000
vt 0.0000 0.1429 0.0000
vt 0.0714 0.1429 0.0000
vt 0.1429 0.1429 0.0000
vt 0.2143 0.1429 0.0000
vt 0.2857 0.1429 0.0000
vt 0.3571 0.1429 0.0000
vt 0.4286 0.1429 0.0000
vt 0.5000 0.1429 0.0000
vt 0.5714 0.1429 0.0000
vt 0.6429 0.1429 0.0000
vt 0.7143 0.1429 0.0000
vt 0.7857 0.1429 0.0000
vt 0.8571 0.1429 0.0000
vt 0.9286 0.1429 0.0000
vt 1.0000 0.1429 0.0000
vt 0.0000 0.0000 0.0000
vt 0.0714 0.0000 0.0000
vt 0.1429 0.0000 0.0000
vt 0.2143 0.0000 0.0000
vt 0.2857 0.0000 0.0000
vt 0.3571 0.0000 0.0000
vt 0.4286 0.0000 0.0000
vt 0.5000 0.0000 0.0000
vt 0.5714 0.0000 0.0000
vt 0.6429 0.0000 0.0000
vt 0.7143 0.0000 0.0000
vt 0.7857 0.0000 0.0000
vt 0.8571 0.0000 0.0000
vt 0.9286 0.0000 0.0000
vt 1.0000 0.0000 0.0000
# 120 texture coords

g Sphere001
f 1/1/1 2/16/2 3/17/3 
f 1/2/4 3/17/5 4/18/6 
f 1/3/7 4/18/8 5/19/9 
f 1/4/10 5/19/11 6/20/12 
f 1/5/13 6/20/14 7/21/15 
f 1/6/16 7/21/17 8/22/18 
f 1/7/19 8/22/20 9/23/21 
f 1/8/22 9/23/23 10/24/24 
f 1/9/25 10/24/26 11/25/27 
f 1/10/28 11/25/29 12/26/30 
f 1/11/31 12/26/32 13/27/33 
f 1/12/34 13/27/35 14/28/36 
f 1/13/37 14/28/38 15/29/39 
f 1/14/40 15/29/41 2/30/42 
f 2/16/43 16/31/44 17/32/45 
f 2/16/46 17/32/47 3/17/48 
f 3/17/49 17/32/50 18/33/51 
f 3/17/52 18/33/53 4/18/54 
f 4/18/55 18/33/56 19/34/57 
f 4/18/58 19/34/59 5/19/60 
f 5/19/61 19/34/62 20/35/63 
f 5/19/64 20/35/65 6/20/66 
f 6/20/67 20/35/68 21/36/69 
f 6/20/70 21/36/71 7/21/72 
f 7/21/73 21/36/74 22/37/75 
f 7/21/76 22/37/77 8/22/78 
f 8/22/79 22/37/80 23/38/81 
f 8/22/82 23/38/83 9/23/84 
f 9/23/85 23/38/86 24/39/87 
f 9/23/88 24/39/89 10/24/90 
f 10/24/91 24/39/92 25/40/93 
f 10/24/94 25/40/95 11/25/96 
f 11/25/97 25/40/98 26/41/99 
f 11/25/100 26/41/101 12/26/102 
f 12/26/103 26/41/104 27/42/105 
f 12/26/106 27/42/107 13/27/108 
f 13/27/109 27/42/110 28/43/111 
f 13/27/112 28/43/113 14/28/114 
f 14/28/115 28/43/116 29/44/117 
f 14/28/118 29/44/119 15/29/120 
f 15/29/121 29/44/122 16/45/123 
f 15/29/124 16/45/125 2/30/126 
f 16/31/127 30/46/128 31/47/129 
f 16/31/130 31/47/131 17/32/132 
f 17/32/133 31/47/134 32/48/135 
f 17/32/136 32/48/137 18/33/138 
f 18/33/139 32/48/140 33/49/141 
f 18/33/142 33/49/143 19/34/144 
f 19/34/145 33/49/146 34/50/147 
f 19/34/148 34/50/149 20/35/150 
f 20/35/151 34/50/152 35/51/153 
f 20/35/154 35/51/155 21/36/156 
f 21/36/157 35/51/158 36/52/159 
f 21/36/160 36/52/161 22/37/162 
f 22/37/163 36/52/164 37/53/165 
f 22/37/166 37/53/167 23/38/168 
f 23/38/169 37/53/170 38/54/171 
f 23/38/172 38/54/173 24/39/174 
f 24/39/175 38/54/176 39/55/177 
f 24/39/178 39/55/179 25/40/180 
f 25/40/181 39/55/182 40/56/183 
f 25/40/184 40/56/185 26/41/186 
f 26/41/187 40/56/188 41/57/189 
f 26/41/190 41/57/191 27/42/192 
f 27/42/193 41/57/194 42/58/195 
f 27/42/196 42/58/197 28/43/198 
f 28/43/199 42/58/200 43/59/201 
f 28/43/202 43/59/203 29/44/204 
f 29/44/205 43/59/206 30/60/207 
f 29/44/208 30/60/209 16/45/210 
f 30/46/211 44/61/212 45/62/213 
f 30/46/214 45/62/215 31/47/216 
f 31/47/217 45/62/218 46/63/219 
f 31/47/220 46/63/221 32/48/222 
f 32/48/223 46/63/224 47/64/225 
f 32/48/226 47/64/227 33/49/228 
f 33/49/229 47/64/230 48/65/231 
f 33/49/232 48/65/233 34/50/234 
f 34/50/235 48/65/236 49/66/237 
f 34/50/238 49/66/239 35/51/240 
f 35/51/241 49/66/242 50/67/243 
f 35/51/244 50/67/245 36/52/246 
f 36/52/247 50/67/248 51/68/249 
f 36/52/250 51/68/251 37/53/252 
f 37/53/253 51/68/254 52/69/255 
f 37/53/256 52/69/257 38/54/258 
f 38/54/259 52/69/260 53/70/261 
f 38/54/262 53/70/263 39/55/264 
f 39/55/265 53/70/266 54/71/267 
f 39/55/268 54/71/269 40/56/270 
f 40/56/271 54/71/272 55/72/273 
f 40/56/274 55/72/275 41/57/276 
f 41/57/277 55/72/278 56/73/279 
f 41/57/280 56/73/281 42/58/282 
f 42/58/283 56/73/284 57/74/285 
f 42/58/286 57/74/287 43/59/288 
f 43/59/289 57/74/290 44/75/291 
f 43/59/292 44/75/293 30/60/294 
f 44/61/295 58/76/296 59/77/297 
f 44/61/298 59/77/299 45/62/300 
f 45/62/301 59/77/302 60/78/303 
f 45/62/304 60/78/305 46/63/306 
f 46/63/307 60/78/308 61/79/309 
f 46/63/310 61/79/311 47/64/312 
f 47/64/313 61/79/314 62/80/315 
f 47/64/316 62/80/317 48/65/318 
f 48/65/319 62/80/320 63/81/321 
f 48/65/322 63/81/323 49/66/324 
f 49/66/325 63/81/326 64/82/327 
f 49/66/328 64/82/329 50/67/330 
f 50/67/331 64/82/332 65/83/333 
f 50/67/334 65/83/335 51/68/336 
f 51/68/337 65/83/338 66/84/339 
f 51/68/340 66/84/341 52/69/342 
f 52/69/343 66/84/344 67/85/345 
f 52/69/346 67/85/347 53/70/348 
f 53/70/349 67/85/350 68/86/351 
f 53/70/352 68/86/353 54/71/354 
f 54/71/355 68/86/356 69/87/357 
f 54/71/358 69/87/359 55/72/360 
f 55/72/361 69/87/362 70/88/363 
f 55/72/364 70/88/365 56/73/366 
f 56/73/367 70/88/368 71/89/369 
f 56/73/370 71/89/371 57/74/372 
f 57/74/373 71/89/374 58/90/375 
f 57/74/376 58/90/377 44/75/378 
f 58/76/379 72/91/380 73/92/381 
f 58/76/382 73/92/383 59/77/384 
f 59/77/385 73/92/386 74/93/387 
f 59/77/388 74/93/389 60/78/390 
f 60/78/391 74/93/392 75/94/393 
f 60/78/394 75/94/395 61/79/396 
f 61/79/397 75/94/398 76/95/399 
f 61/79/400 76/95/401 62/80/402 
f 62/80/403 76/95/404 77/96/405 
f 62/80/406 77/96/407 63/81/408 
f 63/81/409 77/96/410 78/97/411 
f 63/81/412 78/97/413 64/82/414 
f 64/82/415 78/97/416 79/98/417 
f 64/82/418 79/98/419 65/83/420 
f 65/83/421 79/98/422 80/99/423 
f 65/83/424 80/99/425 66/84/426 
f 66/84/427 80/99/428 81/100/429 
f 66/84/430 81/100/431 67/85/432 
f 67/85/433 81/100/434 82/101/435 
f 67/85/436 82/101/437 68/86/438 
f 68/86/439 82/101/440 83/102/441 
f 68/86/442 83/102/443 69/87/444 
f 69/87/445 83/102/446 84/103/447 
f 69/87/448 84/103/449 70/88/450 
f 70/88/451 84/103/452 85/104/453 
f 70/88/454 85/104/455 71/89/456 
f 71/89/457 85/104/458 72/105/459 
f 71/89/460 72/105/461 58/90/462 
f 86/106/463 73/92/464 72/91/465 
f 86/107/466 74/93/467 73/92/468 
f 86/108/469 75/94/470 74/93/471 
f 86/109/472 76/95/473 75/94/474 
f 86/110/475 77/96/476 76/95/477 
f 86/111/478 78/97/479 77/96/480 
f 86/112/481 79/98/482 78/97/483 
f 86/113/484 80/99/485 79/98/486 
f 86/114/487 81/100/488 80/99/489 
f 86/115/490 82/101/491 81/100/492 
f 86/116/493 83/102/494 82/101/495 
f 86/117/496 84/103/497 83/102/498 
f 86/118/499 85/104/500 84/103/501 
f 86/119/502 72/105/503 85/104/504 
# 168 faces

